<svg width="60" height="60" viewBox="0 0 60 60" fill="none" xmlns="http://www.w3.org/2000/svg">
<rect width="60" height="60" rx="30" fill="#EBEFF3"/>
<path opacity="0.4" d="M39 25V35C39 38 37.5 40 34 40H26C22.5 40 21 38 21 35V25C21 22 22.5 20 26 20H34C37.5 20 39 22 39 25Z" fill="#A2A5B5"/>
<path d="M33.5 20V27.86C33.5 28.3 32.98 28.52 32.66 28.23L30.34 26.09C30.15 25.91 29.85 25.91 29.66 26.09L27.34 28.23C27.02 28.53 26.5 28.3 26.5 27.86V20H33.5Z" fill="#A2A5B5"/>
<path d="M35.5 32.75H31.25C30.84 32.75 30.5 32.41 30.5 32C30.5 31.59 30.84 31.25 31.25 31.25H35.5C35.91 31.25 36.25 31.59 36.25 32C36.25 32.41 35.91 32.75 35.5 32.75Z" fill="#A2A5B5"/>
<path d="M35.5 36.75H27C26.59 36.75 26.25 36.41 26.25 36C26.25 35.59 26.59 35.25 27 35.25H35.5C35.91 35.25 36.25 35.59 36.25 36C36.25 36.41 35.91 36.75 35.5 36.75Z" fill="#A2A5B5"/>
</svg>
