<svg width="60" height="60" viewBox="0 0 60 60" fill="none" xmlns="http://www.w3.org/2000/svg">
<rect width="60" height="60" rx="30" fill="#EBEFF3"/>
<path opacity="0.4" d="M34.19 20H25.81C22.17 20 20 22.17 20 25.81V34.18C20 37.83 22.17 40 25.81 40H34.18C37.82 40 39.99 37.83 39.99 34.19V25.81C40 22.17 37.83 20 34.19 20Z" fill="#A2A5B5"/>
<path d="M24.8799 36.9C24.4699 36.9 24.1299 36.56 24.1299 36.15V34.08C24.1299 33.67 24.4699 33.33 24.8799 33.33C25.2899 33.33 25.6299 33.67 25.6299 34.08V36.15C25.6299 36.57 25.2899 36.9 24.8799 36.9Z" fill="#A2A5B5"/>
<path d="M30 36.9C29.59 36.9 29.25 36.56 29.25 36.15V32C29.25 31.59 29.59 31.25 30 31.25C30.41 31.25 30.75 31.59 30.75 32V36.15C30.75 36.57 30.41 36.9 30 36.9Z" fill="#A2A5B5"/>
<path d="M35.1201 36.9C34.7101 36.9 34.3701 36.56 34.3701 36.15V29.93C34.3701 29.52 34.7101 29.18 35.1201 29.18C35.5301 29.18 35.8701 29.52 35.8701 29.93V36.15C35.8701 36.57 35.5401 36.9 35.1201 36.9Z" fill="#A2A5B5"/>
<path d="M35.87 23.82C35.87 23.77 35.85 23.71 35.84 23.66C35.83 23.62 35.82 23.57 35.81 23.53C35.79 23.49 35.76 23.46 35.74 23.42C35.71 23.38 35.68 23.33 35.64 23.3C35.63 23.29 35.63 23.28 35.62 23.28C35.59 23.26 35.56 23.25 35.53 23.23C35.49 23.2 35.44 23.17 35.39 23.15C35.34 23.13 35.29 23.13 35.24 23.12C35.2 23.11 35.17 23.1 35.13 23.1H32.2C31.79 23.1 31.45 23.44 31.45 23.85C31.45 24.26 31.79 24.6 32.2 24.6H33.45C31.07 27.1 28.07 28.86 24.7 29.71C24.3 29.81 24.05 30.22 24.15 30.62C24.23 30.96 24.54 31.19 24.88 31.19C24.94 31.19 25 31.18 25.06 31.17C28.63 30.28 31.82 28.43 34.37 25.81V26.78C34.37 27.19 34.71 27.53 35.12 27.53C35.53 27.53 35.87 27.19 35.87 26.78V23.85C35.87 23.84 35.87 23.83 35.87 23.82Z" fill="#A2A5B5"/>
</svg>
