<svg width="50" height="50" viewBox="0 0 50 50" fill="none" xmlns="http://www.w3.org/2000/svg">
<rect width="50" height="50" rx="25" fill="white"/>
<path d="M14.375 33.4375C13.8625 33.4375 13.4375 33.0125 13.4375 32.5V18.75C13.4375 13.2375 15.1125 11.5625 20.625 11.5625H29.375C34.8875 11.5625 36.5625 13.2375 36.5625 18.75V31.25C36.5625 31.45 36.5625 31.6375 36.55 31.8375C36.5125 32.35 36.05 32.75 35.55 32.7125C35.0375 32.675 34.6375 32.225 34.675 31.7125C34.6875 31.5625 34.6875 31.4 34.6875 31.25V18.75C34.6875 14.2875 33.85 13.4375 29.375 13.4375H20.625C16.15 13.4375 15.3125 14.2875 15.3125 18.75V32.5C15.3125 33.0125 14.8875 33.4375 14.375 33.4375Z" fill="#A6E4F4"/>
<path d="M31.25 38.4375H18.75C15.825 38.4375 13.4375 36.05 13.4375 33.125V32.3125C13.4375 29.825 15.4625 27.8125 17.9375 27.8125H35.625C36.1375 27.8125 36.5625 28.2375 36.5625 28.75V33.125C36.5625 36.05 34.175 38.4375 31.25 38.4375ZM17.9375 29.6875C16.4875 29.6875 15.3125 30.8625 15.3125 32.3125V33.125C15.3125 35.025 16.85 36.5625 18.75 36.5625H31.25C33.15 36.5625 34.6875 35.025 34.6875 33.125V29.6875H17.9375Z" fill="#A6E4F4"/>
<path d="M30 19.6875H20C19.4875 19.6875 19.0625 19.2625 19.0625 18.75C19.0625 18.2375 19.4875 17.8125 20 17.8125H30C30.5125 17.8125 30.9375 18.2375 30.9375 18.75C30.9375 19.2625 30.5125 19.6875 30 19.6875Z" fill="#A6E4F4"/>
<path d="M26.25 24.0625H20C19.4875 24.0625 19.0625 23.6375 19.0625 23.125C19.0625 22.6125 19.4875 22.1875 20 22.1875H26.25C26.7625 22.1875 27.1875 22.6125 27.1875 23.125C27.1875 23.6375 26.7625 24.0625 26.25 24.0625Z" fill="#A6E4F4"/>
</svg>
