<svg width="50" height="50" viewBox="0 0 50 50" fill="none" xmlns="http://www.w3.org/2000/svg">
<rect width="50" height="50" rx="25" fill="white"/>
<path d="M28.75 38.4375H21.25C15.7375 38.4375 14.0625 36.7625 14.0625 31.25V18.75C14.0625 13.2375 15.7375 11.5625 21.25 11.5625H28.75C34.2625 11.5625 35.9375 13.2375 35.9375 18.75V31.25C35.9375 36.7625 34.2625 38.4375 28.75 38.4375ZM21.25 13.4375C16.775 13.4375 15.9375 14.2875 15.9375 18.75V31.25C15.9375 35.7125 16.775 36.5625 21.25 36.5625H28.75C33.225 36.5625 34.0625 35.7125 34.0625 31.25V18.75C34.0625 14.2875 33.225 13.4375 28.75 13.4375H21.25Z" fill="#FF7191"/>
<path d="M27.5 17.8125H22.5C21.9875 17.8125 21.5625 17.3875 21.5625 16.875C21.5625 16.3625 21.9875 15.9375 22.5 15.9375H27.5C28.0125 15.9375 28.4375 16.3625 28.4375 16.875C28.4375 17.3875 28.0125 17.8125 27.5 17.8125Z" fill="#FF7191"/>
<path d="M25 34.825C23.4125 34.825 22.125 33.5375 22.125 31.95C22.125 30.3625 23.4125 29.075 25 29.075C26.5875 29.075 27.875 30.3625 27.875 31.95C27.875 33.5375 26.5875 34.825 25 34.825ZM25 30.9375C24.45 30.9375 24 31.3875 24 31.9375C24 32.4875 24.45 32.9375 25 32.9375C25.55 32.9375 26 32.4875 26 31.9375C26 31.3875 25.55 30.9375 25 30.9375Z" fill="#FF7191"/>
</svg>
