<svg width="148" height="40" viewBox="0 0 148 40" fill="none" xmlns="http://www.w3.org/2000/svg">
<rect width="40" height="40" rx="20" fill="#FF7191"/>
<path d="M29 9.47766L28.194 14.1344H19.7762L19.1195 17.8358H25.2985L24.5224 22.2836H18.3433L16.8807 30.5223H11.0001L14.7314 9.47766H29Z" fill="white"/>
<path d="M55.848 30H58.68V22.536H66.528V20.016H58.68V14.64H67.488V12.12H55.848V30ZM69.1916 30H71.9036V11.832H69.1916V30ZM80.7624 30.288C82.0904 30.288 83.2424 29.984 84.2184 29.376C85.2104 28.768 85.9064 28 86.3064 27.072L84.0984 25.992C83.7784 26.536 83.3384 26.992 82.7784 27.36C82.2344 27.712 81.5704 27.888 80.7864 27.888C79.7624 27.888 78.8904 27.568 78.1704 26.928C77.4504 26.272 77.0504 25.392 76.9704 24.288H86.6184C86.6664 24.096 86.6984 23.888 86.7144 23.664C86.7304 23.44 86.7384 23.224 86.7384 23.016C86.7384 21.896 86.4904 20.864 85.9944 19.92C85.5144 18.96 84.8104 18.192 83.8824 17.616C82.9704 17.024 81.8584 16.728 80.5464 16.728C79.3304 16.728 78.2344 17.024 77.2584 17.616C76.2984 18.192 75.5384 18.992 74.9784 20.016C74.4184 21.024 74.1384 22.176 74.1384 23.472C74.1384 24.752 74.4184 25.912 74.9784 26.952C75.5544 27.976 76.3384 28.792 77.3304 29.4C78.3224 29.992 79.4664 30.288 80.7624 30.288ZM80.5464 19.008C81.4584 19.008 82.2264 19.296 82.8504 19.872C83.4744 20.448 83.8104 21.2 83.8584 22.128H77.0184C77.1784 21.136 77.5864 20.368 78.2424 19.824C78.8984 19.28 79.6664 19.008 80.5464 19.008ZM87.4468 30H90.6388L93.5908 25.656L96.5188 30H99.7108L95.1748 23.496L99.7348 17.016H96.5428L93.5908 21.312L90.6388 17.016H87.4468L91.9828 23.496L87.4468 30ZM106.878 30.288C107.774 30.288 108.606 30.128 109.374 29.808C110.142 29.488 110.806 29.056 111.366 28.512C111.942 27.952 112.358 27.328 112.614 26.64L110.238 25.512C109.95 26.2 109.51 26.752 108.918 27.168C108.342 27.568 107.662 27.768 106.878 27.768C106.142 27.768 105.478 27.584 104.886 27.216C104.31 26.848 103.854 26.344 103.518 25.704C103.182 25.048 103.014 24.312 103.014 23.496C103.014 22.664 103.182 21.936 103.518 21.312C103.854 20.672 104.31 20.168 104.886 19.8C105.478 19.432 106.142 19.248 106.878 19.248C107.662 19.248 108.35 19.456 108.942 19.872C109.534 20.272 109.966 20.808 110.238 21.48L112.614 20.376C112.342 19.656 111.918 19.024 111.342 18.48C110.782 17.92 110.118 17.488 109.35 17.184C108.582 16.88 107.758 16.728 106.878 16.728C105.582 16.728 104.43 17.024 103.422 17.616C102.414 18.192 101.622 18.992 101.046 20.016C100.47 21.024 100.182 22.176 100.182 23.472C100.182 24.768 100.47 25.928 101.046 26.952C101.622 27.976 102.414 28.792 103.422 29.4C104.43 29.992 105.582 30.288 106.878 30.288ZM114.856 30H117.568V22.344C117.568 21.384 117.824 20.632 118.336 20.088C118.848 19.528 119.512 19.248 120.328 19.248C121.144 19.248 121.808 19.528 122.32 20.088C122.832 20.632 123.088 21.384 123.088 22.344V30H125.776V22.344C125.776 21.384 126.032 20.632 126.544 20.088C127.072 19.528 127.744 19.248 128.56 19.248C129.376 19.248 130.032 19.528 130.529 20.088C131.041 20.632 131.297 21.384 131.297 22.344V30H134.008V21.6C134.008 20.64 133.792 19.8 133.36 19.08C132.944 18.344 132.369 17.768 131.633 17.352C130.912 16.936 130.096 16.728 129.185 16.728C128.32 16.728 127.536 16.912 126.832 17.28C126.128 17.648 125.56 18.2 125.128 18.936C124.744 18.264 124.192 17.728 123.472 17.328C122.752 16.928 121.952 16.728 121.072 16.728C120.288 16.728 119.576 16.888 118.936 17.208C118.296 17.528 117.8 18 117.448 18.624V17.016H114.856V30ZM141.303 30.288C142.263 30.288 143.103 30.128 143.823 29.808C144.559 29.472 145.127 29.016 145.527 28.44C145.927 27.848 146.127 27.168 146.127 26.4C146.127 25.504 145.839 24.736 145.263 24.096C144.687 23.44 143.863 22.96 142.791 22.656L140.679 22.032C140.279 21.904 139.903 21.728 139.551 21.504C139.199 21.28 139.023 20.944 139.023 20.496C139.023 20.032 139.199 19.664 139.551 19.392C139.903 19.12 140.375 18.984 140.967 18.984C141.655 18.984 142.271 19.168 142.815 19.536C143.375 19.904 143.783 20.4 144.039 21.024L146.127 20.04C145.743 19 145.087 18.192 144.159 17.616C143.231 17.024 142.175 16.728 140.991 16.728C140.111 16.728 139.319 16.896 138.615 17.232C137.911 17.552 137.359 18 136.959 18.576C136.559 19.152 136.359 19.832 136.359 20.616C136.359 21.496 136.631 22.256 137.175 22.896C137.735 23.536 138.575 24.016 139.695 24.336L141.735 24.912C142.151 25.024 142.543 25.2 142.911 25.44C143.279 25.664 143.463 26.008 143.463 26.472C143.463 26.968 143.263 27.36 142.863 27.648C142.463 27.936 141.943 28.08 141.303 28.08C140.551 28.08 139.863 27.864 139.239 27.432C138.631 27 138.151 26.416 137.799 25.68L135.711 26.664C136.111 27.768 136.807 28.648 137.799 29.304C138.807 29.96 139.975 30.288 141.303 30.288Z" fill="#2F2D2E"/>
</svg>
