<svg width="212" height="40" viewBox="0 0 212 40" fill="none" xmlns="http://www.w3.org/2000/svg">
<rect width="40" height="40" rx="20" fill="#FF7191"/>
<path d="M29 9.47766L28.194 14.1344H19.7762L19.1195 17.8358H25.2985L24.5224 22.2836H18.3433L16.8807 30.5223H11.0001L14.7314 9.47766H29Z" fill="white"/>
<path d="M55.848 30H58.68V22.536H66.528V20.016H58.68V14.64H67.488V12.12H55.848V30ZM69.1916 30H71.9036V11.832H69.1916V30ZM80.7624 30.288C82.0904 30.288 83.2424 29.984 84.2184 29.376C85.2104 28.768 85.9064 28 86.3064 27.072L84.0984 25.992C83.7784 26.536 83.3384 26.992 82.7784 27.36C82.2344 27.712 81.5704 27.888 80.7864 27.888C79.7624 27.888 78.8904 27.568 78.1704 26.928C77.4504 26.272 77.0504 25.392 76.9704 24.288H86.6184C86.6664 24.096 86.6984 23.888 86.7144 23.664C86.7304 23.44 86.7384 23.224 86.7384 23.016C86.7384 21.896 86.4904 20.864 85.9944 19.92C85.5144 18.96 84.8104 18.192 83.8824 17.616C82.9704 17.024 81.8584 16.728 80.5464 16.728C79.3304 16.728 78.2344 17.024 77.2584 17.616C76.2984 18.192 75.5384 18.992 74.9784 20.016C74.4184 21.024 74.1384 22.176 74.1384 23.472C74.1384 24.752 74.4184 25.912 74.9784 26.952C75.5544 27.976 76.3384 28.792 77.3304 29.4C78.3224 29.992 79.4664 30.288 80.7624 30.288ZM80.5464 19.008C81.4584 19.008 82.2264 19.296 82.8504 19.872C83.4744 20.448 83.8104 21.2 83.8584 22.128H77.0184C77.1784 21.136 77.5864 20.368 78.2424 19.824C78.8984 19.28 79.6664 19.008 80.5464 19.008ZM87.4468 30H90.6388L93.5908 25.656L96.5188 30H99.7108L95.1748 23.496L99.7348 17.016H96.5428L93.5908 21.312L90.6388 17.016H87.4468L91.9828 23.496L87.4468 30ZM106.878 30.288C107.774 30.288 108.606 30.128 109.374 29.808C110.142 29.488 110.806 29.056 111.366 28.512C111.942 27.952 112.358 27.328 112.614 26.64L110.238 25.512C109.95 26.2 109.51 26.752 108.918 27.168C108.342 27.568 107.662 27.768 106.878 27.768C106.142 27.768 105.478 27.584 104.886 27.216C104.31 26.848 103.854 26.344 103.518 25.704C103.182 25.048 103.014 24.312 103.014 23.496C103.014 22.664 103.182 21.936 103.518 21.312C103.854 20.672 104.31 20.168 104.886 19.8C105.478 19.432 106.142 19.248 106.878 19.248C107.662 19.248 108.35 19.456 108.942 19.872C109.534 20.272 109.966 20.808 110.238 21.48L112.614 20.376C112.342 19.656 111.918 19.024 111.342 18.48C110.782 17.92 110.118 17.488 109.35 17.184C108.582 16.88 107.758 16.728 106.878 16.728C105.582 16.728 104.43 17.024 103.422 17.616C102.414 18.192 101.622 18.992 101.046 20.016C100.47 21.024 100.182 22.176 100.182 23.472C100.182 24.768 100.47 25.928 101.046 26.952C101.622 27.976 102.414 28.792 103.422 29.4C104.43 29.992 105.582 30.288 106.878 30.288ZM114.856 30H117.568V22.344C117.568 21.384 117.824 20.632 118.336 20.088C118.848 19.528 119.512 19.248 120.328 19.248C121.144 19.248 121.808 19.528 122.32 20.088C122.832 20.632 123.088 21.384 123.088 22.344V30H125.776V22.344C125.776 21.384 126.032 20.632 126.544 20.088C127.072 19.528 127.744 19.248 128.56 19.248C129.376 19.248 130.032 19.528 130.529 20.088C131.041 20.632 131.297 21.384 131.297 22.344V30H134.008V21.6C134.008 20.64 133.792 19.8 133.36 19.08C132.944 18.344 132.369 17.768 131.633 17.352C130.912 16.936 130.096 16.728 129.185 16.728C128.32 16.728 127.536 16.912 126.832 17.28C126.128 17.648 125.56 18.2 125.128 18.936C124.744 18.264 124.192 17.728 123.472 17.328C122.752 16.928 121.952 16.728 121.072 16.728C120.288 16.728 119.576 16.888 118.936 17.208C118.296 17.528 117.8 18 117.448 18.624V17.016H114.856V30ZM141.303 30.288C142.263 30.288 143.103 30.128 143.823 29.808C144.559 29.472 145.127 29.016 145.527 28.44C145.927 27.848 146.127 27.168 146.127 26.4C146.127 25.504 145.839 24.736 145.263 24.096C144.687 23.44 143.863 22.96 142.791 22.656L140.679 22.032C140.279 21.904 139.903 21.728 139.551 21.504C139.199 21.28 139.023 20.944 139.023 20.496C139.023 20.032 139.199 19.664 139.551 19.392C139.903 19.12 140.375 18.984 140.967 18.984C141.655 18.984 142.271 19.168 142.815 19.536C143.375 19.904 143.783 20.4 144.039 21.024L146.127 20.04C145.743 19 145.087 18.192 144.159 17.616C143.231 17.024 142.175 16.728 140.991 16.728C140.111 16.728 139.319 16.896 138.615 17.232C137.911 17.552 137.359 18 136.959 18.576C136.559 19.152 136.359 19.832 136.359 20.616C136.359 21.496 136.631 22.256 137.175 22.896C137.735 23.536 138.575 24.016 139.695 24.336L141.735 24.912C142.151 25.024 142.543 25.2 142.911 25.44C143.279 25.664 143.463 26.008 143.463 26.472C143.463 26.968 143.263 27.36 142.863 27.648C142.463 27.936 141.943 28.08 141.303 28.08C140.551 28.08 139.863 27.864 139.239 27.432C138.631 27 138.151 26.416 137.799 25.68L135.711 26.664C136.111 27.768 136.807 28.648 137.799 29.304C138.807 29.96 139.975 30.288 141.303 30.288Z" fill="#2F2D2E"/>
<line opacity="0.1" x1="162.5" y1="8.5" x2="162.5" y2="31.5" stroke="#2F2D2E"/>
<path d="M177.328 27H182.352C183.568 27 184.528 26.6853 185.232 26.056C185.936 25.4267 186.288 24.5627 186.288 23.464C186.288 22.8667 186.144 22.3173 185.856 21.816C185.579 21.3147 185.157 20.904 184.592 20.584C185.403 20.0187 185.808 19.224 185.808 18.2C185.808 17.2507 185.493 16.4933 184.864 15.928C184.245 15.3627 183.403 15.08 182.336 15.08H177.328V27ZM178.896 19.976V16.504H182.304C182.88 16.504 183.344 16.6533 183.696 16.952C184.048 17.24 184.224 17.6507 184.224 18.184C184.224 18.7067 184.048 19.1387 183.696 19.48C183.344 19.8107 182.88 19.976 182.304 19.976H178.896ZM178.896 25.56V21.384H182.416C183.109 21.384 183.664 21.576 184.08 21.96C184.496 22.344 184.704 22.8507 184.704 23.48C184.704 24.12 184.496 24.6267 184.08 25C183.664 25.3733 183.109 25.56 182.416 25.56H178.896ZM188.054 27H189.542V14.888H188.054V27ZM195.771 27.192C196.582 27.192 197.323 27 197.995 26.616C198.667 26.232 199.2 25.6987 199.595 25.016C200 24.3333 200.203 23.5547 200.203 22.68C200.203 21.816 200.006 21.048 199.611 20.376C199.227 19.6933 198.699 19.16 198.027 18.776C197.355 18.3813 196.603 18.184 195.771 18.184C194.928 18.184 194.171 18.3813 193.499 18.776C192.827 19.16 192.294 19.6933 191.899 20.376C191.515 21.048 191.323 21.816 191.323 22.68C191.323 23.544 191.52 24.3173 191.915 25C192.31 25.6827 192.843 26.2213 193.515 26.616C194.187 27 194.939 27.192 195.771 27.192ZM195.771 25.752C195.227 25.752 194.736 25.6187 194.299 25.352C193.872 25.0853 193.531 24.7227 193.275 24.264C193.019 23.7947 192.891 23.2667 192.891 22.68C192.891 22.0933 193.019 21.5707 193.275 21.112C193.531 20.6533 193.872 20.2907 194.299 20.024C194.736 19.7573 195.227 19.624 195.771 19.624C196.304 19.624 196.784 19.7573 197.211 20.024C197.648 20.2907 197.99 20.6533 198.235 21.112C198.491 21.5707 198.619 22.0933 198.619 22.68C198.619 23.2667 198.491 23.7947 198.235 24.264C197.99 24.7227 197.648 25.0853 197.211 25.352C196.784 25.6187 196.304 25.752 195.771 25.752ZM206.08 30.52C206.88 30.52 207.589 30.3493 208.208 30.008C208.837 29.6773 209.328 29.2187 209.68 28.632C210.032 28.0453 210.208 27.3787 210.208 26.632V18.376H208.752V19.576C208.41 19.1387 207.989 18.7973 207.488 18.552C206.986 18.3067 206.432 18.184 205.824 18.184C205.013 18.184 204.288 18.376 203.648 18.76C203.018 19.1333 202.522 19.6453 202.16 20.296C201.797 20.9467 201.616 21.6773 201.616 22.488C201.616 23.2987 201.797 24.0293 202.16 24.68C202.533 25.3307 203.034 25.848 203.664 26.232C204.304 26.6053 205.029 26.792 205.84 26.792C206.426 26.792 206.97 26.6747 207.472 26.44C207.973 26.2053 208.384 25.8693 208.704 25.432V26.632C208.704 27.1547 208.581 27.5973 208.336 27.96C208.101 28.3333 207.786 28.6107 207.392 28.792C206.997 28.984 206.554 29.08 206.064 29.08C205.424 29.08 204.89 28.936 204.464 28.648C204.048 28.3707 203.765 28.0293 203.616 27.624L202.224 28.264C202.512 28.936 202.997 29.48 203.68 29.896C204.362 30.312 205.162 30.52 206.08 30.52ZM205.968 25.352C205.434 25.352 204.954 25.224 204.528 24.968C204.112 24.712 203.781 24.3707 203.536 23.944C203.301 23.5067 203.184 23.0213 203.184 22.488C203.184 21.9547 203.306 21.4747 203.552 21.048C203.797 20.6107 204.128 20.264 204.544 20.008C204.97 19.752 205.445 19.624 205.968 19.624C206.48 19.624 206.944 19.752 207.36 20.008C207.776 20.264 208.101 20.6107 208.336 21.048C208.581 21.4747 208.704 21.9547 208.704 22.488C208.704 23.0107 208.581 23.4907 208.336 23.928C208.101 24.3653 207.776 24.712 207.36 24.968C206.944 25.224 206.48 25.352 205.968 25.352Z" fill="#676D7C"/>
</svg>
