<svg width="50" height="50" viewBox="0 0 50 50" fill="none" xmlns="http://www.w3.org/2000/svg">
<rect width="50" height="50" rx="25" fill="white" fill-opacity="0.06"/>
<path d="M18.15 30.325C17.9125 30.325 17.675 30.2375 17.4875 30.05C17.125 29.6875 17.125 29.0875 17.4875 28.725L21.3 24.9125C21.6625 24.55 22.2625 24.55 22.625 24.9125C22.9875 25.275 22.9875 25.875 22.625 26.2375L18.8125 30.05C18.625 30.225 18.3875 30.325 18.15 30.325Z" fill="#8B75E0"/>
<path d="M22 30.3625C21.7625 30.3625 21.525 30.275 21.3375 30.0875L17.525 26.275C17.1625 25.9125 17.1625 25.3125 17.525 24.95C17.8875 24.5875 18.4875 24.5875 18.85 24.95L22.6625 28.7625C23.025 29.125 23.025 29.725 22.6625 30.0875C22.475 30.275 22.2375 30.3625 22 30.3625Z" fill="#8B75E0"/>
<path d="M26.925 28.75C26.2375 28.75 25.6625 28.1875 25.6625 27.5C25.6625 26.8125 26.2125 26.25 26.9 26.25H26.925C27.6125 26.25 28.175 26.8125 28.175 27.5C28.175 28.1875 27.625 28.75 26.925 28.75Z" fill="#8B75E0"/>
<path d="M31.85 28.75C31.1625 28.75 30.5875 28.1875 30.5875 27.5C30.5875 26.8125 31.1375 26.25 31.825 26.25H31.85C32.5375 26.25 33.1 26.8125 33.1 27.5C33.1 28.1875 32.5375 28.75 31.85 28.75Z" fill="#8B75E0"/>
<path d="M29.375 31.2124C28.6875 31.2124 28.125 30.6624 28.125 29.9749V29.95C28.125 29.2625 28.6875 28.7 29.375 28.7C30.0625 28.7 30.625 29.2625 30.625 29.95C30.625 30.6374 30.075 31.2124 29.375 31.2124Z" fill="#8B75E0"/>
<path d="M29.375 26.2875C28.6875 26.2875 28.125 25.7375 28.125 25.05V25.025C28.125 24.3375 28.6875 23.775 29.375 23.775C30.0625 23.775 30.625 24.3375 30.625 25.025C30.625 25.7125 30.075 26.2875 29.375 26.2875Z" fill="#8B75E0"/>
<path d="M28.75 38.4375H21.25C14.4625 38.4375 11.5625 35.5375 11.5625 28.75V26.25C11.5625 19.4625 14.4625 16.5625 21.25 16.5625H28.75C35.5375 16.5625 38.4375 19.4625 38.4375 26.25V28.75C38.4375 35.5375 35.5375 38.4375 28.75 38.4375ZM21.25 18.4375C15.4875 18.4375 13.4375 20.4875 13.4375 26.25V28.75C13.4375 34.5125 15.4875 36.5625 21.25 36.5625H28.75C34.5125 36.5625 36.5625 34.5125 36.5625 28.75V26.25C36.5625 20.4875 34.5125 18.4375 28.75 18.4375H21.25Z" fill="#8B75E0"/>
<path d="M26.2375 18.4375H24.9875C23.7875 18.4375 22.8 17.45 22.8 16.25C22.8 15.05 23.775 14.0625 24.975 14.0625C25.175 14.0625 25.3125 13.925 25.325 13.75L25.3375 12.4875C25.35 11.975 25.7625 11.5625 26.275 11.5625H26.2875C26.8 11.575 27.225 12 27.2125 12.5125L27.2 13.775C27.1875 14.9625 26.2 15.9375 25.0125 15.9375C24.8125 15.9375 24.6875 16.075 24.6875 16.25C24.6875 16.425 24.825 16.5625 25 16.5625H26.25C26.7625 16.5625 27.1875 16.9875 27.1875 17.5C27.1875 18.0125 26.75 18.4375 26.2375 18.4375Z" fill="#8B75E0"/>
</svg>
