<svg width="50" height="50" viewBox="0 0 50 50" fill="none" xmlns="http://www.w3.org/2000/svg">
<rect width="50" height="50" rx="25" fill="white" fill-opacity="0.06"/>
<path d="M31.95 32.4625H18.05C13.075 32.4625 11.5625 30.95 11.5625 25.975V18.05C11.5625 13.075 13.075 11.5625 18.05 11.5625H31.9375C36.9125 11.5625 38.425 13.075 38.425 18.05V25.9625C38.4375 30.95 36.925 32.4625 31.95 32.4625ZM18.05 13.4375C14.125 13.4375 13.4375 14.125 13.4375 18.05V25.9625C13.4375 29.8875 14.125 30.575 18.05 30.575H31.9375C35.8625 30.575 36.55 29.8875 36.55 25.9625V18.05C36.55 14.125 35.8625 13.4375 31.9375 13.4375H18.05Z" fill="#FDBF11"/>
<path d="M25 38.4375C24.4875 38.4375 24.0625 38.0125 24.0625 37.5V31.525C24.0625 31.0125 24.4875 30.5875 25 30.5875C25.5125 30.5875 25.9375 31.0125 25.9375 31.525V37.5C25.9375 38.0125 25.5125 38.4375 25 38.4375Z" fill="#FDBF11"/>
<path d="M37.5 27.1875H12.5C11.9875 27.1875 11.5625 26.7625 11.5625 26.25C11.5625 25.7375 11.9875 25.3125 12.5 25.3125H37.5C38.0125 25.3125 38.4375 25.7375 38.4375 26.25C38.4375 26.7625 38.0125 27.1875 37.5 27.1875Z" fill="#FDBF11"/>
<path d="M30.625 38.4375H19.375C18.8625 38.4375 18.4375 38.0125 18.4375 37.5C18.4375 36.9875 18.8625 36.5625 19.375 36.5625H30.625C31.1375 36.5625 31.5625 36.9875 31.5625 37.5C31.5625 38.0125 31.1375 38.4375 30.625 38.4375Z" fill="#FDBF11"/>
</svg>
