<svg width="50" height="50" viewBox="0 0 50 50" fill="none" xmlns="http://www.w3.org/2000/svg">
<rect width="50" height="50" rx="25" fill="white" fill-opacity="0.06"/>
<path d="M19.375 29.0625C19.1375 29.0625 18.9 28.975 18.7125 28.7875C18.35 28.425 18.35 27.825 18.7125 27.4625L22.7125 23.4625C22.9125 23.2625 23.175 23.1625 23.4625 23.1875C23.7375 23.2125 23.9875 23.3625 24.15 23.6L25.5125 25.65L29.95 21.2125C30.3125 20.85 30.9125 20.85 31.275 21.2125C31.6375 21.575 31.6375 22.175 31.275 22.5375L26.025 27.7875C25.825 27.9875 25.5625 28.0875 25.275 28.0625C25 28.0375 24.75 27.8875 24.5875 27.65L23.225 25.6L20.0375 28.7875C19.85 28.975 19.6125 29.0625 19.375 29.0625Z" fill="#7ACC90"/>
<path d="M30.625 25.3125C30.1125 25.3125 29.6875 24.8875 29.6875 24.375V22.8125H28.125C27.6125 22.8125 27.1875 22.3875 27.1875 21.875C27.1875 21.3625 27.6125 20.9375 28.125 20.9375H30.625C31.1375 20.9375 31.5625 21.3625 31.5625 21.875V24.375C31.5625 24.8875 31.1375 25.3125 30.625 25.3125Z" fill="#7ACC90"/>
<path d="M28.75 38.4375H21.25C14.4625 38.4375 11.5625 35.5375 11.5625 28.75V21.25C11.5625 14.4625 14.4625 11.5625 21.25 11.5625H28.75C35.5375 11.5625 38.4375 14.4625 38.4375 21.25V28.75C38.4375 35.5375 35.5375 38.4375 28.75 38.4375ZM21.25 13.4375C15.4875 13.4375 13.4375 15.4875 13.4375 21.25V28.75C13.4375 34.5125 15.4875 36.5625 21.25 36.5625H28.75C34.5125 36.5625 36.5625 34.5125 36.5625 28.75V21.25C36.5625 15.4875 34.5125 13.4375 28.75 13.4375H21.25Z" fill="#7ACC90"/>
</svg>
